<svg
	xmlns="http://www.w3.org/2000/svg"
	xmlns:xlink="http://www.w3.org/1999/xlink"
	version="1.1"
	width="48"
	height="48"
	viewBox="0 0 48 48">
	<g
		id="icon">
		<svg
			version="1.1"
			id="Layer_1"
			xmlns:x="http://ns.adobe.com/Extensibility/1.0/"
			xmlns:i="http://ns.adobe.com/AdobeIllustrator/10.0/"
			xmlns:graph="http://ns.adobe.com/Graphs/1.0/"
			xmlns="http://www.w3.org/2000/svg"
			xmlns:xlink="http://www.w3.org/1999/xlink"
			x="12px"
			y="12px"
			width="50%"
			height="50%"
			viewBox="0 0 16 16"
			style="enable-background:new 0 0 16 16;"
			xml:space="preserve">
			<style type="text/css">
				.Drop_x0020_Shadow{fill:none;}
				.Round_x0020_Corners_x0020_2_x0020_pt{fill:#FFFFFF;stroke:#1B1B1F;stroke-miterlimit:10;}
				.Live_x0020_Reflect_x0020_X{fill:none;}
				.Bevel_x0020_Soft{fill:url(#SVGID_1_);}
				.Dusk{fill:#FFFFFF;}
				.Foliage_GS{fill:#FFDC00;}
				.Pompadour_GS{fill-rule:evenodd;clip-rule:evenodd;fill:#58AEE2;}
				.st0{fill:none;}
				.st1{fill:#FFFFFF;}
				.st2{fill:#283037;}
				.st3{fill:#4DA825;}
			</style>
			<switch>
				<g
					i:extraneous="self">
					<linearGradient
						id="SVGID_1_"
						gradientUnits="userSpaceOnUse"
						x1="821.0892"
						y1="0"
						x2="821.7963"
						y2="0.7071">
						<stop
							offset="0"
							style="stop-color:#E6E6EA"/>
						<stop
							offset="0.1719"
							style="stop-color:#E2E2E6"/>
						<stop
							offset="0.3482"
							style="stop-color:#D7D6DA"/>
						<stop
							offset="0.5264"
							style="stop-color:#C4C2C5"/>
						<stop
							offset="0.7061"
							style="stop-color:#A9A7A8"/>
						<stop
							offset="0.8852"
							style="stop-color:#878484"/>
						<stop
							offset="1"
							style="stop-color:#6D6968"/>
					</linearGradient>
					<g>
						<rect
							x="0"
							y="0"
							class="st0"
							width="16"
							height="16"/>
						<g>
							<g>
								<path
									class="st1"
									d="M14,3.3L9,0.3C8.4-0.1,7.6-0.1,7,0.3L2,3.3C1.4,3.6,1,4.3,1,5v6c0,0.7,0.4,1.4,1,1.7l5.1,3       C7.3,15.9,7.7,16,8,16c0.3,0,0.7-0.1,1-0.3l5.1-3c0.6-0.4,1-1,1-1.7V5C15,4.3,14.6,3.6,14,3.3z"/>
							</g>
							<g>
								<path
									class="st2"
									d="M14,3.3L9,0.3C8.7,0.1,8.3,0,8,0S7.3,0.1,7,0.3L2,3.3C1.4,3.6,1,4.3,1,5v6c0,0.7,0.4,1.4,1,1.7l5.1,3       C7.3,15.9,7.7,16,8,16c0.3,0,0.7-0.1,1-0.3l5.1-3c0.6-0.4,1-1,1-1.7V5C15,4.3,14.6,3.6,14,3.3z M7.2,15.4l-5.1-3       c-0.5-0.3-0.8-0.8-0.8-1.4V5c0-0.6,0.3-1.1,0.8-1.4l5.1-3C7.4,0.4,7.7,0.4,8,0.4s0.6,0.1,0.8,0.2l5.1,3       c0.4,0.2,0.7,0.7,0.8,1.2c-0.2-0.4-0.5-0.5-1-0.2l-4.8,3c-0.6,0.3-1,0.7-1,1.5v5.9c0,0.4,0.2,0.7,0.4,0.8c-0.1,0-0.2,0-0.3,0       C7.7,15.6,7.4,15.6,7.2,15.4z"/>
							</g>
							<g>
								<path
									class="st3"
									d="M12.7,11.6l-1.3,0.8c0,0-0.1,0-0.1,0.1v0.3c0,0,0,0.1,0.1,0l1.3-0.8c0,0,0-0.1,0-0.1L12.7,11.6       C12.8,11.6,12.7,11.6,12.7,11.6z"/>
							</g>
							<g>
								<path
									class="st1"
									d="M10,8.8C10.1,8.8,10.1,8.8,10,8.8l0.1,0.5c0.2-0.1,0.3-0.1,0.5-0.1c0,0,0,0.1,0,0.1l-0.1,0.4       c0,0,0,0.1,0,0.1c0,0,0,0,0,0c0,0,0,0,0,0c-0.1,0-0.2,0-0.5,0.1c-0.3,0.1-0.3,0.4-0.3,0.5c0,0.2,0.1,0.3,0.5,0.3       c0.5,0,0.7,0.2,0.7,0.7c0,0.5-0.2,1-0.6,1.3l0,0.4c0,0.1,0,0.1-0.1,0.1l-0.3,0.1c0,0-0.1,0-0.1-0.1l0-0.4       C9.5,13,9.3,13,9.1,12.9c0,0,0,0,0-0.1l0.1-0.4c0,0,0-0.1,0-0.1c0,0,0,0,0,0c0,0,0,0,0,0c0.2,0.1,0.3,0,0.5-0.1       c0.2-0.1,0.4-0.4,0.4-0.6c0-0.2-0.1-0.3-0.4-0.3c-0.4,0-0.7-0.1-0.7-0.6c0-0.4,0.2-0.9,0.6-1.2l0-0.4C9.7,9,9.7,9,9.8,9L10,8.8       z"/>
							</g>
						</g>
					</g>
				</g>
			</switch>
		</svg>
	</g>
</svg>
